<svg xmlns="http://www.w3.org/2000/svg" viewBox="0.01 -0.032 45.063 45.06"><title>&#x8D44;&#x6E90; 2</title><g data-name="&#x56FE;&#x5C42; 2"><path d="M39.62 9.33a16.59 16.59 0 0 0-11.19-4.58 17.86 17.86 0 0 0-13 5.72 15.68 15.68 0 0 0-4 12.28 12.31 12.31 0 0 0 3.36 7.6 10.73 10.73 0 0 0 7.76 3.27 11.15 11.15 0 0 0 10.92-13.3c-2.54-7.63-9.58-5.83-12-3.14a5.24 5.24 0 0 1 1.11-.12 5.43 5.43 0 0 1 0 10.86c-2.9 0-5.18-2.67-5.44-5.65-.66-7.58 5.07-11.86 11.34-11.86 4.54 0 10.93 3.75 10.93 12.08a16.83 16.83 0 0 1-33.66 0c0-.55 0-1.1.08-1.65a19.51 19.51 0 0 1 7-14.43A23 23 0 0 1 31.89 2a22.53 22.53 0 1 0 13.18 20.53 17.88 17.88 0 0 0-5.45-13.2z" fill="#e72e5d" data-name="Layer 1"/></g></svg>